<svg xmlns="http://www.w3.org/2000/svg" xmlns:xlink="http://www.w3.org/1999/xlink" width="500" zoomAndPan="magnify" viewBox="0 0 375 374.999991" height="500" preserveAspectRatio="xMidYMid meet" version="1.0"><defs><g/><clipPath id="7949ddd4f3"><path d="M 170.292969 130.835938 L 225.792969 130.835938 L 225.792969 219.335938 L 170.292969 219.335938 Z M 170.292969 130.835938 " clip-rule="nonzero"/></clipPath><clipPath id="86e852831f"><rect x="0" width="373" y="0" height="71"/></clipPath></defs><g clip-path="url(#7949ddd4f3)"><path fill="#4ca626" d="M 191.476562 130.824219 L 225.421875 130.824219 L 197.953125 170.730469 L 225.421875 171.761719 L 184.996094 219.445312 L 190.957031 182.648438 L 170.484375 184.203125 L 191.476562 130.824219 " fill-opacity="1" fill-rule="nonzero"/></g><g transform="matrix(1, 0, 0, 1, 2, 174)"><g clip-path="url(#86e852831f)"><g fill="#4ca626" fill-opacity="1"><g transform="translate(1.48527, 63.988335)"><g><path d="M 41.1875 -11.09375 L 41.1875 -25.703125 L 29.453125 -2.1875 C 29.367188 -1.957031 29.195312 -1.84375 28.9375 -1.84375 L 21.859375 -1.84375 C 21.546875 -1.84375 21.351562 -1.957031 21.28125 -2.1875 L 8.796875 -26.34375 L 8.796875 -0.515625 C 8.796875 -0.171875 8.585938 0 8.171875 0 L 0.578125 0 C 0.191406 0 0 -0.171875 0 -0.515625 L 0 -45.5 C 0 -45.84375 0.191406 -46.015625 0.578125 -46.015625 L 8.28125 -46.015625 C 8.59375 -46.015625 8.785156 -45.898438 8.859375 -45.671875 L 25.359375 -11.96875 L 41.0625 -45.671875 C 41.21875 -45.898438 41.429688 -46.015625 41.703125 -46.015625 L 49.296875 -46.015625 C 49.710938 -46.015625 49.921875 -45.84375 49.921875 -45.5 L 49.921875 -11.09375 Z M 41.1875 -11.09375 "/></g></g></g><g fill="#4ca626" fill-opacity="1"><g transform="translate(58.591118, 63.988335)"><g><path d="M 21.859375 -8.5625 L 21.859375 0 L 0.625 0 C 0.207031 0 0 -0.171875 0 -0.515625 L 0 -45.5 C 0 -45.84375 0.207031 -46.015625 0.625 -46.015625 L 21.859375 -46.015625 L 21.859375 -37.671875 L 8.796875 -37.671875 L 8.796875 -27.265625 L 26.859375 -27.265625 C 27.285156 -27.265625 27.5 -27.09375 27.5 -26.75 L 27.5 -19.4375 C 27.5 -19.09375 27.285156 -18.921875 26.859375 -18.921875 L 8.796875 -18.921875 L 8.796875 -8.5625 Z M 21.859375 -8.5625 "/></g></g></g><g fill="#4ca626" fill-opacity="1"><g transform="translate(92.11863, 63.988335)"><g><path d="M 9.484375 -29.328125 L 18.234375 -29.328125 L 18.234375 -0.515625 C 18.234375 -0.171875 18.003906 0 17.546875 0 L 10.125 0 C 9.695312 0 9.484375 -0.171875 9.484375 -0.515625 Z M 0.625 -38.140625 C 0.207031 -38.140625 0 -38.3125 0 -38.65625 L 0 -45.5 C 0 -45.84375 0.207031 -46.015625 0.625 -46.015625 L 27.03125 -46.015625 C 27.457031 -46.015625 27.671875 -45.84375 27.671875 -45.5 L 27.671875 -38.65625 C 27.671875 -38.3125 27.457031 -38.140625 27.03125 -38.140625 Z M 0.625 -38.140625 "/></g></g></g><g fill="#4ca626" fill-opacity="1"><g transform="translate(125.818672, 63.988335)"><g><path d="M 31.40625 -0.75 C 31.476562 -0.550781 31.46875 -0.375 31.375 -0.21875 C 31.28125 -0.0703125 31.117188 0 30.890625 0 L 22.65625 0 C 22.351562 0 22.164062 -0.113281 22.09375 -0.34375 L 13.6875 -18.578125 L 8.75 -18.578125 L 8.75 -0.515625 C 8.75 -0.171875 8.535156 0 8.109375 0 L 0.578125 0 C 0.191406 0 0 -0.171875 0 -0.515625 L 0 -27.03125 L 15.46875 -27.03125 C 15.925781 -27.03125 16.539062 -27.066406 17.3125 -27.140625 C 18.082031 -27.222656 18.835938 -27.4375 19.578125 -27.78125 C 20.328125 -28.125 20.960938 -28.648438 21.484375 -29.359375 C 22.003906 -30.066406 22.265625 -31.054688 22.265625 -32.328125 C 22.265625 -33.585938 21.984375 -34.582031 21.421875 -35.3125 C 20.867188 -36.039062 20.1875 -36.566406 19.375 -36.890625 C 18.570312 -37.222656 17.804688 -37.4375 17.078125 -37.53125 C 16.347656 -37.625 15.8125 -37.671875 15.46875 -37.671875 L 0 -37.671875 L 0 -45.5 C 0 -45.84375 0.191406 -46.015625 0.578125 -46.015625 L 15.46875 -46.015625 C 16.007812 -46.015625 16.875 -45.960938 18.0625 -45.859375 C 19.25 -45.765625 20.578125 -45.503906 22.046875 -45.078125 C 23.523438 -44.660156 24.945312 -43.972656 26.3125 -43.015625 C 27.675781 -42.054688 28.796875 -40.710938 29.671875 -38.984375 C 30.554688 -37.265625 31 -35.046875 31 -32.328125 C 31 -29.984375 30.613281 -27.992188 29.84375 -26.359375 C 29.082031 -24.734375 28.054688 -23.40625 26.765625 -22.375 C 25.484375 -21.34375 24.078125 -20.535156 22.546875 -19.953125 C 24.003906 -16.691406 25.488281 -13.46875 27 -10.28125 C 28.519531 -7.101562 29.988281 -3.925781 31.40625 -0.75 Z M 31.40625 -0.75 "/></g></g></g><g fill="#4ca626" fill-opacity="1"><g transform="translate(163.544279, 63.988335)"><g><path d="M 26.453125 -22.890625 C 26.453125 -21.703125 26.039062 -20.6875 25.21875 -19.84375 C 24.394531 -19 23.367188 -18.578125 22.140625 -18.578125 C 20.953125 -18.578125 19.9375 -19 19.09375 -19.84375 C 18.25 -20.6875 17.828125 -21.703125 17.828125 -22.890625 C 17.828125 -24.117188 18.25 -25.15625 19.09375 -26 C 19.9375 -26.84375 20.953125 -27.265625 22.140625 -27.265625 C 23.367188 -27.265625 24.394531 -26.84375 25.21875 -26 C 26.039062 -25.15625 26.453125 -24.117188 26.453125 -22.890625 Z M 44.28125 -23.0625 C 44.28125 -20.1875 43.820312 -17.378906 42.90625 -14.640625 C 41.988281 -11.898438 40.609375 -9.425781 38.765625 -7.21875 C 36.921875 -5.007812 34.617188 -3.253906 31.859375 -1.953125 C 29.097656 -0.648438 25.878906 0 22.203125 0 C 18.484375 0 15.234375 -0.648438 12.453125 -1.953125 C 9.671875 -3.253906 7.359375 -5.007812 5.515625 -7.21875 C 3.679688 -9.425781 2.300781 -11.898438 1.375 -14.640625 C 0.457031 -17.378906 0 -20.1875 0 -23.0625 C 0 -25.9375 0.457031 -28.734375 1.375 -31.453125 C 2.300781 -34.179688 3.679688 -36.632812 5.515625 -38.8125 C 7.359375 -41 9.671875 -42.742188 12.453125 -44.046875 C 15.234375 -45.359375 18.484375 -46.015625 22.203125 -46.015625 C 25.878906 -46.015625 29.097656 -45.359375 31.859375 -44.046875 C 34.617188 -42.742188 36.921875 -41 38.765625 -38.8125 C 40.609375 -36.632812 41.988281 -34.179688 42.90625 -31.453125 C 43.820312 -28.734375 44.28125 -25.9375 44.28125 -23.0625 Z M 35.65625 -22.890625 C 35.65625 -24.765625 35.367188 -26.59375 34.796875 -28.375 C 34.222656 -30.164062 33.378906 -31.78125 32.265625 -33.21875 C 31.148438 -34.65625 29.75 -35.796875 28.0625 -36.640625 C 26.375 -37.484375 24.421875 -37.90625 22.203125 -37.90625 C 19.941406 -37.90625 17.96875 -37.484375 16.28125 -36.640625 C 14.59375 -35.796875 13.179688 -34.65625 12.046875 -33.21875 C 10.921875 -31.78125 10.078125 -30.164062 9.515625 -28.375 C 8.960938 -26.59375 8.6875 -24.765625 8.6875 -22.890625 C 8.6875 -21.046875 8.960938 -19.242188 9.515625 -17.484375 C 10.078125 -15.722656 10.921875 -14.128906 12.046875 -12.703125 C 13.179688 -11.285156 14.59375 -10.15625 16.28125 -9.3125 C 17.96875 -8.46875 19.941406 -8.046875 22.203125 -8.046875 C 24.421875 -8.046875 26.375 -8.46875 28.0625 -9.3125 C 29.75 -10.15625 31.148438 -11.285156 32.265625 -12.703125 C 33.378906 -14.128906 34.222656 -15.722656 34.796875 -17.484375 C 35.367188 -19.242188 35.65625 -21.046875 35.65625 -22.890625 Z M 35.65625 -22.890625 "/></g></g></g><g fill="#4ca626" fill-opacity="1"><g transform="translate(214.669283, 63.988335)"><g><path d="M 26.859375 -27.265625 C 27.285156 -27.265625 27.5 -27.09375 27.5 -26.75 L 27.5 -19.4375 C 27.5 -19.09375 27.285156 -18.921875 26.859375 -18.921875 L 8.796875 -18.921875 L 8.796875 0 L 0.625 0 C 0.207031 0 0 -0.171875 0 -0.515625 L 0 -45.5 C 0 -45.84375 0.207031 -46.015625 0.625 -46.015625 L 21.859375 -46.015625 L 21.859375 -37.671875 L 8.796875 -37.671875 L 8.796875 -27.265625 Z M 26.859375 -27.265625 "/></g></g></g><g fill="#4ca626" fill-opacity="1"><g transform="translate(248.196794, 63.988335)"><g><path d="M 26.453125 -22.890625 C 26.453125 -21.703125 26.039062 -20.6875 25.21875 -19.84375 C 24.394531 -19 23.367188 -18.578125 22.140625 -18.578125 C 20.953125 -18.578125 19.9375 -19 19.09375 -19.84375 C 18.25 -20.6875 17.828125 -21.703125 17.828125 -22.890625 C 17.828125 -24.117188 18.25 -25.15625 19.09375 -26 C 19.9375 -26.84375 20.953125 -27.265625 22.140625 -27.265625 C 23.367188 -27.265625 24.394531 -26.84375 25.21875 -26 C 26.039062 -25.15625 26.453125 -24.117188 26.453125 -22.890625 Z M 44.28125 -23.0625 C 44.28125 -20.1875 43.820312 -17.378906 42.90625 -14.640625 C 41.988281 -11.898438 40.609375 -9.425781 38.765625 -7.21875 C 36.921875 -5.007812 34.617188 -3.253906 31.859375 -1.953125 C 29.097656 -0.648438 25.878906 0 22.203125 0 C 18.484375 0 15.234375 -0.648438 12.453125 -1.953125 C 9.671875 -3.253906 7.359375 -5.007812 5.515625 -7.21875 C 3.679688 -9.425781 2.300781 -11.898438 1.375 -14.640625 C 0.457031 -17.378906 0 -20.1875 0 -23.0625 C 0 -25.9375 0.457031 -28.734375 1.375 -31.453125 C 2.300781 -34.179688 3.679688 -36.632812 5.515625 -38.8125 C 7.359375 -41 9.671875 -42.742188 12.453125 -44.046875 C 15.234375 -45.359375 18.484375 -46.015625 22.203125 -46.015625 C 25.878906 -46.015625 29.097656 -45.359375 31.859375 -44.046875 C 34.617188 -42.742188 36.921875 -41 38.765625 -38.8125 C 40.609375 -36.632812 41.988281 -34.179688 42.90625 -31.453125 C 43.820312 -28.734375 44.28125 -25.9375 44.28125 -23.0625 Z M 35.65625 -22.890625 C 35.65625 -24.765625 35.367188 -26.59375 34.796875 -28.375 C 34.222656 -30.164062 33.378906 -31.78125 32.265625 -33.21875 C 31.148438 -34.65625 29.75 -35.796875 28.0625 -36.640625 C 26.375 -37.484375 24.421875 -37.90625 22.203125 -37.90625 C 19.941406 -37.90625 17.96875 -37.484375 16.28125 -36.640625 C 14.59375 -35.796875 13.179688 -34.65625 12.046875 -33.21875 C 10.921875 -31.78125 10.078125 -30.164062 9.515625 -28.375 C 8.960938 -26.59375 8.6875 -24.765625 8.6875 -22.890625 C 8.6875 -21.046875 8.960938 -19.242188 9.515625 -17.484375 C 10.078125 -15.722656 10.921875 -14.128906 12.046875 -12.703125 C 13.179688 -11.285156 14.59375 -10.15625 16.28125 -9.3125 C 17.96875 -8.46875 19.941406 -8.046875 22.203125 -8.046875 C 24.421875 -8.046875 26.375 -8.46875 28.0625 -9.3125 C 29.75 -10.15625 31.148438 -11.285156 32.265625 -12.703125 C 33.378906 -14.128906 34.222656 -15.722656 34.796875 -17.484375 C 35.367188 -19.242188 35.65625 -21.046875 35.65625 -22.890625 Z M 35.65625 -22.890625 "/></g></g></g><g fill="#4ca626" fill-opacity="1"><g transform="translate(299.321813, 63.988335)"><g><path d="M 24.84375 -8.5625 C 25.269531 -8.5625 25.484375 -8.375 25.484375 -8 L 25.484375 -0.515625 C 25.484375 -0.171875 25.269531 0 24.84375 0 L 0.625 0 C 0.207031 0 0 -0.171875 0 -0.515625 L 0 -8.5625 Z M 8.796875 -17.375 L 0 -17.375 L 0 -45.5 C 0 -45.84375 0.207031 -46.015625 0.625 -46.015625 L 8.21875 -46.015625 C 8.601562 -46.015625 8.796875 -45.84375 8.796875 -45.5 Z M 8.796875 -17.375 "/></g></g></g><g fill="#4ca626" fill-opacity="1"><g transform="translate(330.779009, 63.988335)"><g><path d="M 36.6875 -0.859375 C 36.882812 -0.628906 36.925781 -0.425781 36.8125 -0.25 C 36.695312 -0.0820312 36.484375 0 36.171875 0 L 26.28125 0 C 26.050781 0 25.878906 -0.0546875 25.765625 -0.171875 L 12.359375 -16.734375 C 12.171875 -16.546875 11.738281 -16.078125 11.0625 -15.328125 C 10.394531 -14.578125 9.59375 -13.675781 8.65625 -12.625 C 7.71875 -11.570312 6.75 -10.476562 5.75 -9.34375 C 4.75 -8.21875 3.804688 -7.15625 2.921875 -6.15625 C 2.046875 -5.15625 1.335938 -4.347656 0.796875 -3.734375 C 0.265625 -3.117188 0 -2.8125 0 -2.8125 L 0 -45.5 C 0 -45.84375 0.207031 -46.015625 0.625 -46.015625 L 8.21875 -46.015625 C 8.601562 -46.015625 8.796875 -45.84375 8.796875 -45.5 L 8.796875 -24.5625 L 26.109375 -45.84375 C 26.222656 -45.957031 26.394531 -46.015625 26.625 -46.015625 L 36 -46.015625 C 36.3125 -46.015625 36.523438 -45.914062 36.640625 -45.71875 C 36.753906 -45.53125 36.710938 -45.34375 36.515625 -45.15625 L 18.234375 -22.609375 Z M 36.6875 -0.859375 "/></g></g></g></g></g></svg>