<svg xmlns="http://www.w3.org/2000/svg" xmlns:xlink="http://www.w3.org/1999/xlink" width="500" zoomAndPan="magnify" viewBox="0 0 375 149.999998" height="200" preserveAspectRatio="xMidYMid meet" version="1.0"><defs><g/><clipPath id="265394008e"><path d="M 164.644531 1.496094 L 219 1.496094 L 219 88.183594 L 164.644531 88.183594 Z M 164.644531 1.496094 " clip-rule="nonzero"/></clipPath><clipPath id="c1c95c023d"><path d="M 0.71875 43 L 366.960938 43 L 366.960938 112.320312 L 0.71875 112.320312 Z M 0.71875 43 " clip-rule="nonzero"/></clipPath><clipPath id="85e54ba852"><rect x="0" width="367" y="0" height="70"/></clipPath><clipPath id="36ebf3ecce"><rect x="0" width="367" y="0" height="113"/></clipPath></defs><g transform="matrix(1, 0, 0, 1, 6, 18)"><g clip-path="url(#36ebf3ecce)"><g clip-path="url(#265394008e)"><path fill="#4ca626" d="M 185.394531 1.484375 L 218.644531 1.484375 L 191.738281 40.574219 L 218.644531 41.585938 L 179.046875 88.289062 L 184.886719 52.25 L 164.832031 53.769531 L 185.394531 1.484375 " fill-opacity="1" fill-rule="nonzero"/></g><g clip-path="url(#c1c95c023d)"><g transform="matrix(1, 0, 0, 1, 0, 43)"><g clip-path="url(#85e54ba852)"><g fill="#4ca626" fill-opacity="1"><g transform="translate(1.254535, 63.454171)"><g><path d="M 40.328125 -10.875 L 40.328125 -25.171875 L 28.84375 -2.140625 C 28.769531 -1.910156 28.597656 -1.796875 28.328125 -1.796875 L 21.40625 -1.796875 C 21.101562 -1.796875 20.914062 -1.910156 20.84375 -2.140625 L 8.625 -25.796875 L 8.625 -0.5 C 8.625 -0.164062 8.414062 0 8 0 L 0.5625 0 C 0.1875 0 0 -0.164062 0 -0.5 L 0 -44.5625 C 0 -44.894531 0.1875 -45.0625 0.5625 -45.0625 L 8.109375 -45.0625 C 8.410156 -45.0625 8.597656 -44.945312 8.671875 -44.71875 L 24.84375 -11.71875 L 40.21875 -44.71875 C 40.363281 -44.945312 40.570312 -45.0625 40.84375 -45.0625 L 48.265625 -45.0625 C 48.679688 -45.0625 48.890625 -44.894531 48.890625 -44.5625 L 48.890625 -10.875 Z M 40.328125 -10.875 "/></g></g></g><g fill="#4ca626" fill-opacity="1"><g transform="translate(57.190663, 63.454171)"><g><path d="M 21.40625 -8.390625 L 21.40625 0 L 0.625 0 C 0.207031 0 0 -0.164062 0 -0.5 L 0 -44.5625 C 0 -44.894531 0.207031 -45.0625 0.625 -45.0625 L 21.40625 -45.0625 L 21.40625 -36.890625 L 8.625 -36.890625 L 8.625 -26.703125 L 26.3125 -26.703125 C 26.71875 -26.703125 26.921875 -26.53125 26.921875 -26.1875 L 26.921875 -19.03125 C 26.921875 -18.695312 26.71875 -18.53125 26.3125 -18.53125 L 8.625 -18.53125 L 8.625 -8.390625 Z M 21.40625 -8.390625 "/></g></g></g><g fill="#4ca626" fill-opacity="1"><g transform="translate(90.031417, 63.454171)"><g><path d="M 9.296875 -28.734375 L 17.859375 -28.734375 L 17.859375 -0.5 C 17.859375 -0.164062 17.632812 0 17.1875 0 L 9.90625 0 C 9.5 0 9.296875 -0.164062 9.296875 -0.5 Z M 0.625 -37.34375 C 0.207031 -37.34375 0 -37.515625 0 -37.859375 L 0 -44.5625 C 0 -44.894531 0.207031 -45.0625 0.625 -45.0625 L 26.46875 -45.0625 C 26.882812 -45.0625 27.09375 -44.894531 27.09375 -44.5625 L 27.09375 -37.859375 C 27.09375 -37.515625 26.882812 -37.34375 26.46875 -37.34375 Z M 0.625 -37.34375 "/></g></g></g><g fill="#4ca626" fill-opacity="1"><g transform="translate(123.041168, 63.454171)"><g><path d="M 30.75 -0.734375 C 30.832031 -0.546875 30.828125 -0.375 30.734375 -0.21875 C 30.640625 -0.0703125 30.476562 0 30.25 0 L 22.1875 0 C 21.894531 0 21.707031 -0.113281 21.625 -0.34375 L 13.40625 -18.1875 L 8.5625 -18.1875 L 8.5625 -0.5 C 8.5625 -0.164062 8.351562 0 7.9375 0 L 0.5625 0 C 0.1875 0 0 -0.164062 0 -0.5 L 0 -26.46875 L 15.15625 -26.46875 C 15.601562 -26.46875 16.203125 -26.503906 16.953125 -26.578125 C 17.703125 -26.660156 18.441406 -26.867188 19.171875 -27.203125 C 19.910156 -27.546875 20.53125 -28.0625 21.03125 -28.75 C 21.539062 -29.445312 21.796875 -30.414062 21.796875 -31.65625 C 21.796875 -32.894531 21.523438 -33.867188 20.984375 -34.578125 C 20.441406 -35.296875 19.773438 -35.8125 18.984375 -36.125 C 18.191406 -36.445312 17.4375 -36.65625 16.71875 -36.75 C 16.007812 -36.84375 15.488281 -36.890625 15.15625 -36.890625 L 0 -36.890625 L 0 -44.5625 C 0 -44.894531 0.1875 -45.0625 0.5625 -45.0625 L 15.15625 -45.0625 C 15.675781 -45.0625 16.519531 -45.015625 17.6875 -44.921875 C 18.851562 -44.828125 20.15625 -44.570312 21.59375 -44.15625 C 23.039062 -43.75 24.429688 -43.070312 25.765625 -42.125 C 27.097656 -41.1875 28.195312 -39.875 29.0625 -38.1875 C 29.925781 -36.5 30.359375 -34.320312 30.359375 -31.65625 C 30.359375 -29.363281 29.984375 -27.421875 29.234375 -25.828125 C 28.484375 -24.234375 27.476562 -22.925781 26.21875 -21.90625 C 24.957031 -20.894531 23.578125 -20.109375 22.078125 -19.546875 C 23.503906 -16.359375 24.957031 -13.203125 26.4375 -10.078125 C 27.925781 -6.960938 29.363281 -3.847656 30.75 -0.734375 Z M 30.75 -0.734375 "/></g></g></g><g fill="#4ca626" fill-opacity="1"><g transform="translate(159.994027, 63.454171)"><g><path d="M 25.90625 -22.421875 C 25.90625 -21.253906 25.5 -20.253906 24.6875 -19.421875 C 23.882812 -18.597656 22.882812 -18.1875 21.6875 -18.1875 C 20.519531 -18.1875 19.523438 -18.597656 18.703125 -19.421875 C 17.878906 -20.253906 17.46875 -21.253906 17.46875 -22.421875 C 17.46875 -23.617188 17.878906 -24.628906 18.703125 -25.453125 C 19.523438 -26.285156 20.519531 -26.703125 21.6875 -26.703125 C 22.882812 -26.703125 23.882812 -26.285156 24.6875 -25.453125 C 25.5 -24.628906 25.90625 -23.617188 25.90625 -22.421875 Z M 43.375 -22.59375 C 43.375 -19.769531 42.921875 -17.015625 42.015625 -14.328125 C 41.117188 -11.648438 39.769531 -9.226562 37.96875 -7.0625 C 36.164062 -4.90625 33.910156 -3.1875 31.203125 -1.90625 C 28.503906 -0.632812 25.351562 0 21.75 0 C 18.101562 0 14.914062 -0.632812 12.1875 -1.90625 C 9.46875 -3.1875 7.207031 -4.90625 5.40625 -7.0625 C 3.601562 -9.226562 2.25 -11.648438 1.34375 -14.328125 C 0.445312 -17.015625 0 -19.769531 0 -22.59375 C 0 -25.40625 0.445312 -28.144531 1.34375 -30.8125 C 2.25 -33.476562 3.601562 -35.878906 5.40625 -38.015625 C 7.207031 -40.160156 9.46875 -41.867188 12.1875 -43.140625 C 14.914062 -44.421875 18.101562 -45.0625 21.75 -45.0625 C 25.351562 -45.0625 28.503906 -44.421875 31.203125 -43.140625 C 33.910156 -41.867188 36.164062 -40.160156 37.96875 -38.015625 C 39.769531 -35.878906 41.117188 -33.476562 42.015625 -30.8125 C 42.921875 -28.144531 43.375 -25.40625 43.375 -22.59375 Z M 34.921875 -22.421875 C 34.921875 -24.253906 34.640625 -26.046875 34.078125 -27.796875 C 33.515625 -29.546875 32.6875 -31.125 31.59375 -32.53125 C 30.507812 -33.9375 29.140625 -35.050781 27.484375 -35.875 C 25.835938 -36.707031 23.925781 -37.125 21.75 -37.125 C 19.53125 -37.125 17.59375 -36.707031 15.9375 -35.875 C 14.289062 -35.050781 12.910156 -33.9375 11.796875 -32.53125 C 10.691406 -31.125 9.863281 -29.546875 9.3125 -27.796875 C 8.769531 -26.046875 8.5 -24.253906 8.5 -22.421875 C 8.5 -20.617188 8.769531 -18.851562 9.3125 -17.125 C 9.863281 -15.394531 10.691406 -13.832031 11.796875 -12.4375 C 12.910156 -11.050781 14.289062 -9.945312 15.9375 -9.125 C 17.59375 -8.300781 19.53125 -7.890625 21.75 -7.890625 C 23.925781 -7.890625 25.835938 -8.300781 27.484375 -9.125 C 29.140625 -9.945312 30.507812 -11.050781 31.59375 -12.4375 C 32.6875 -13.832031 33.515625 -15.394531 34.078125 -17.125 C 34.640625 -18.851562 34.921875 -20.617188 34.921875 -22.421875 Z M 34.921875 -22.421875 "/></g></g></g><g fill="#4ca626" fill-opacity="1"><g transform="translate(210.071818, 63.454171)"><g><path d="M 26.3125 -26.703125 C 26.71875 -26.703125 26.921875 -26.53125 26.921875 -26.1875 L 26.921875 -19.03125 C 26.921875 -18.695312 26.71875 -18.53125 26.3125 -18.53125 L 8.625 -18.53125 L 8.625 0 L 0.625 0 C 0.207031 0 0 -0.164062 0 -0.5 L 0 -44.5625 C 0 -44.894531 0.207031 -45.0625 0.625 -45.0625 L 21.40625 -45.0625 L 21.40625 -36.890625 L 8.625 -36.890625 L 8.625 -26.703125 Z M 26.3125 -26.703125 "/></g></g></g><g fill="#4ca626" fill-opacity="1"><g transform="translate(242.912572, 63.454171)"><g><path d="M 25.90625 -22.421875 C 25.90625 -21.253906 25.5 -20.253906 24.6875 -19.421875 C 23.882812 -18.597656 22.882812 -18.1875 21.6875 -18.1875 C 20.519531 -18.1875 19.523438 -18.597656 18.703125 -19.421875 C 17.878906 -20.253906 17.46875 -21.253906 17.46875 -22.421875 C 17.46875 -23.617188 17.878906 -24.628906 18.703125 -25.453125 C 19.523438 -26.285156 20.519531 -26.703125 21.6875 -26.703125 C 22.882812 -26.703125 23.882812 -26.285156 24.6875 -25.453125 C 25.5 -24.628906 25.90625 -23.617188 25.90625 -22.421875 Z M 43.375 -22.59375 C 43.375 -19.769531 42.921875 -17.015625 42.015625 -14.328125 C 41.117188 -11.648438 39.769531 -9.226562 37.96875 -7.0625 C 36.164062 -4.90625 33.910156 -3.1875 31.203125 -1.90625 C 28.503906 -0.632812 25.351562 0 21.75 0 C 18.101562 0 14.914062 -0.632812 12.1875 -1.90625 C 9.46875 -3.1875 7.207031 -4.90625 5.40625 -7.0625 C 3.601562 -9.226562 2.25 -11.648438 1.34375 -14.328125 C 0.445312 -17.015625 0 -19.769531 0 -22.59375 C 0 -25.40625 0.445312 -28.144531 1.34375 -30.8125 C 2.25 -33.476562 3.601562 -35.878906 5.40625 -38.015625 C 7.207031 -40.160156 9.46875 -41.867188 12.1875 -43.140625 C 14.914062 -44.421875 18.101562 -45.0625 21.75 -45.0625 C 25.351562 -45.0625 28.503906 -44.421875 31.203125 -43.140625 C 33.910156 -41.867188 36.164062 -40.160156 37.96875 -38.015625 C 39.769531 -35.878906 41.117188 -33.476562 42.015625 -30.8125 C 42.921875 -28.144531 43.375 -25.40625 43.375 -22.59375 Z M 34.921875 -22.421875 C 34.921875 -24.253906 34.640625 -26.046875 34.078125 -27.796875 C 33.515625 -29.546875 32.6875 -31.125 31.59375 -32.53125 C 30.507812 -33.9375 29.140625 -35.050781 27.484375 -35.875 C 25.835938 -36.707031 23.925781 -37.125 21.75 -37.125 C 19.53125 -37.125 17.59375 -36.707031 15.9375 -35.875 C 14.289062 -35.050781 12.910156 -33.9375 11.796875 -32.53125 C 10.691406 -31.125 9.863281 -29.546875 9.3125 -27.796875 C 8.769531 -26.046875 8.5 -24.253906 8.5 -22.421875 C 8.5 -20.617188 8.769531 -18.851562 9.3125 -17.125 C 9.863281 -15.394531 10.691406 -13.832031 11.796875 -12.4375 C 12.910156 -11.050781 14.289062 -9.945312 15.9375 -9.125 C 17.59375 -8.300781 19.53125 -7.890625 21.75 -7.890625 C 23.925781 -7.890625 25.835938 -8.300781 27.484375 -9.125 C 29.140625 -9.945312 30.507812 -11.050781 31.59375 -12.4375 C 32.6875 -13.832031 33.515625 -15.394531 34.078125 -17.125 C 34.640625 -18.851562 34.921875 -20.617188 34.921875 -22.421875 Z M 34.921875 -22.421875 "/></g></g></g><g fill="#4ca626" fill-opacity="1"><g transform="translate(292.990377, 63.454171)"><g><path d="M 24.328125 -8.390625 C 24.742188 -8.390625 24.953125 -8.203125 24.953125 -7.828125 L 24.953125 -0.5 C 24.953125 -0.164062 24.742188 0 24.328125 0 L 0.625 0 C 0.207031 0 0 -0.164062 0 -0.5 L 0 -8.390625 Z M 8.625 -17.015625 L 0 -17.015625 L 0 -44.5625 C 0 -44.894531 0.207031 -45.0625 0.625 -45.0625 L 8.0625 -45.0625 C 8.4375 -45.0625 8.625 -44.894531 8.625 -44.5625 Z M 8.625 -17.015625 "/></g></g></g><g fill="#4ca626" fill-opacity="1"><g transform="translate(323.803223, 63.454171)"><g><path d="M 35.9375 -0.84375 C 36.125 -0.613281 36.160156 -0.414062 36.046875 -0.25 C 35.929688 -0.0820312 35.726562 0 35.4375 0 L 25.734375 0 C 25.515625 0 25.347656 -0.0546875 25.234375 -0.171875 L 12.109375 -16.390625 C 11.921875 -16.203125 11.5 -15.738281 10.84375 -15 C 10.1875 -14.269531 9.394531 -13.390625 8.46875 -12.359375 C 7.550781 -11.328125 6.601562 -10.253906 5.625 -9.140625 C 4.65625 -8.035156 3.738281 -6.992188 2.875 -6.015625 C 2.007812 -5.046875 1.3125 -4.257812 0.78125 -3.65625 C 0.257812 -3.0625 0 -2.765625 0 -2.765625 L 0 -44.5625 C 0 -44.894531 0.207031 -45.0625 0.625 -45.0625 L 8.0625 -45.0625 C 8.4375 -45.0625 8.625 -44.894531 8.625 -44.5625 L 8.625 -24.046875 L 25.578125 -44.890625 C 25.679688 -45.003906 25.847656 -45.0625 26.078125 -45.0625 L 35.265625 -45.0625 C 35.566406 -45.0625 35.769531 -44.96875 35.875 -44.78125 C 35.988281 -44.59375 35.953125 -44.40625 35.765625 -44.21875 L 17.859375 -22.140625 Z M 35.9375 -0.84375 "/></g></g></g></g></g></g></g></g></svg>