<svg xmlns="http://www.w3.org/2000/svg" xmlns:xlink="http://www.w3.org/1999/xlink" width="500" zoomAndPan="magnify" viewBox="0 0 375 74.999997" height="100" preserveAspectRatio="xMidYMid meet" version="1.0"><defs><g/><clipPath id="b73c05d7e5"><path d="M 111.113281 0 L 147.839844 0 L 147.839844 58.570312 L 111.113281 58.570312 Z M 111.113281 0 " clip-rule="nonzero"/></clipPath><clipPath id="787e357124"><path d="M 0.28125 28 L 247.71875 28 L 247.71875 74.878906 L 0.28125 74.878906 Z M 0.28125 28 " clip-rule="nonzero"/></clipPath><clipPath id="e6a83bd09e"><path d="M 0.28125 12 L 34 12 L 34 43 L 0.28125 43 Z M 0.28125 12 " clip-rule="nonzero"/></clipPath><clipPath id="a1a76e90e2"><rect x="0" width="248" y="0" height="47"/></clipPath><clipPath id="0674301b34"><rect x="0" width="248" y="0" height="75"/></clipPath></defs><g transform="matrix(1, 0, 0, 1, 65, -0.000000000000001893)"><g clip-path="url(#0674301b34)"><g clip-path="url(#b73c05d7e5)"><path fill="#4ca626" d="M 125.132812 -0.0078125 L 147.597656 -0.0078125 L 129.417969 26.402344 L 147.597656 27.085938 L 120.84375 58.640625 L 124.789062 34.289062 L 111.238281 35.316406 L 125.132812 -0.0078125 " fill-opacity="1" fill-rule="nonzero"/></g><g clip-path="url(#787e357124)"><g transform="matrix(1, 0, 0, 1, 0, 28)"><g clip-path="url(#a1a76e90e2)"><g clip-path="url(#e6a83bd09e)"><g fill="#4ca626" fill-opacity="1"><g transform="translate(0.720542, 42.912774)"><g><path d="M 27.25 -7.34375 L 27.25 -17.015625 L 19.484375 -1.453125 C 19.429688 -1.296875 19.316406 -1.21875 19.140625 -1.21875 L 14.46875 -1.21875 C 14.257812 -1.21875 14.128906 -1.296875 14.078125 -1.453125 L 5.828125 -17.4375 L 5.828125 -0.34375 C 5.828125 -0.113281 5.6875 0 5.40625 0 L 0.375 0 C 0.125 0 0 -0.113281 0 -0.34375 L 0 -30.109375 C 0 -30.335938 0.125 -30.453125 0.375 -30.453125 L 5.484375 -30.453125 C 5.679688 -30.453125 5.804688 -30.375 5.859375 -30.21875 L 16.78125 -7.921875 L 27.171875 -30.21875 C 27.273438 -30.375 27.414062 -30.453125 27.59375 -30.453125 L 32.625 -30.453125 C 32.894531 -30.453125 33.03125 -30.335938 33.03125 -30.109375 L 33.03125 -7.34375 Z M 27.25 -7.34375 "/></g></g></g></g><g fill="#4ca626" fill-opacity="1"><g transform="translate(38.512729, 42.912774)"><g><path d="M 14.46875 -5.671875 L 14.46875 0 L 0.421875 0 C 0.140625 0 0 -0.113281 0 -0.34375 L 0 -30.109375 C 0 -30.335938 0.140625 -30.453125 0.421875 -30.453125 L 14.46875 -30.453125 L 14.46875 -24.9375 L 5.828125 -24.9375 L 5.828125 -18.046875 L 17.78125 -18.046875 C 18.050781 -18.046875 18.1875 -17.929688 18.1875 -17.703125 L 18.1875 -12.859375 C 18.1875 -12.628906 18.050781 -12.515625 17.78125 -12.515625 L 5.828125 -12.515625 L 5.828125 -5.671875 Z M 14.46875 -5.671875 "/></g></g></g><g fill="#4ca626" fill-opacity="1"><g transform="translate(60.700963, 42.912774)"><g><path d="M 6.28125 -19.40625 L 12.0625 -19.40625 L 12.0625 -0.34375 C 12.0625 -0.113281 11.910156 0 11.609375 0 L 6.703125 0 C 6.421875 0 6.28125 -0.113281 6.28125 -0.34375 Z M 0.421875 -25.234375 C 0.140625 -25.234375 0 -25.347656 0 -25.578125 L 0 -30.109375 C 0 -30.335938 0.140625 -30.453125 0.421875 -30.453125 L 17.890625 -30.453125 C 18.171875 -30.453125 18.3125 -30.335938 18.3125 -30.109375 L 18.3125 -25.578125 C 18.3125 -25.347656 18.171875 -25.234375 17.890625 -25.234375 Z M 0.421875 -25.234375 "/></g></g></g><g fill="#4ca626" fill-opacity="1"><g transform="translate(83.003377, 42.912774)"><g><path d="M 20.78125 -0.5 C 20.832031 -0.363281 20.828125 -0.242188 20.765625 -0.140625 C 20.703125 -0.046875 20.59375 0 20.4375 0 L 15 0 C 14.789062 0 14.660156 -0.078125 14.609375 -0.234375 L 9.0625 -12.296875 L 5.78125 -12.296875 L 5.78125 -0.34375 C 5.78125 -0.113281 5.640625 0 5.359375 0 L 0.375 0 C 0.125 0 0 -0.113281 0 -0.34375 L 0 -17.890625 L 10.234375 -17.890625 C 10.546875 -17.890625 10.953125 -17.914062 11.453125 -17.96875 C 11.960938 -18.019531 12.460938 -18.160156 12.953125 -18.390625 C 13.453125 -18.617188 13.875 -18.96875 14.21875 -19.4375 C 14.5625 -19.90625 14.734375 -20.554688 14.734375 -21.390625 C 14.734375 -22.222656 14.546875 -22.878906 14.171875 -23.359375 C 13.804688 -23.847656 13.359375 -24.195312 12.828125 -24.40625 C 12.296875 -24.625 11.785156 -24.765625 11.296875 -24.828125 C 10.816406 -24.898438 10.460938 -24.9375 10.234375 -24.9375 L 0 -24.9375 L 0 -30.109375 C 0 -30.335938 0.125 -30.453125 0.375 -30.453125 L 10.234375 -30.453125 C 10.585938 -30.453125 11.15625 -30.421875 11.9375 -30.359375 C 12.726562 -30.296875 13.613281 -30.125 14.59375 -29.84375 C 15.570312 -29.5625 16.507812 -29.101562 17.40625 -28.46875 C 18.3125 -27.832031 19.054688 -26.941406 19.640625 -25.796875 C 20.222656 -24.660156 20.515625 -23.191406 20.515625 -21.390625 C 20.515625 -19.835938 20.257812 -18.519531 19.75 -17.4375 C 19.25 -16.363281 18.570312 -15.484375 17.71875 -14.796875 C 16.863281 -14.117188 15.929688 -13.585938 14.921875 -13.203125 C 15.878906 -11.046875 16.859375 -8.914062 17.859375 -6.8125 C 18.867188 -4.707031 19.84375 -2.601562 20.78125 -0.5 Z M 20.78125 -0.5 "/></g></g></g><g fill="#4ca626" fill-opacity="1"><g transform="translate(107.969878, 42.912774)"><g><path d="M 17.515625 -15.15625 C 17.515625 -14.363281 17.238281 -13.6875 16.6875 -13.125 C 16.144531 -12.570312 15.46875 -12.296875 14.65625 -12.296875 C 13.863281 -12.296875 13.1875 -12.570312 12.625 -13.125 C 12.070312 -13.6875 11.796875 -14.363281 11.796875 -15.15625 C 11.796875 -15.957031 12.070312 -16.640625 12.625 -17.203125 C 13.1875 -17.765625 13.863281 -18.046875 14.65625 -18.046875 C 15.46875 -18.046875 16.144531 -17.765625 16.6875 -17.203125 C 17.238281 -16.640625 17.515625 -15.957031 17.515625 -15.15625 Z M 29.3125 -15.265625 C 29.3125 -13.359375 29.003906 -11.5 28.390625 -9.6875 C 27.785156 -7.875 26.875 -6.238281 25.65625 -4.78125 C 24.4375 -3.320312 22.910156 -2.160156 21.078125 -1.296875 C 19.253906 -0.429688 17.125 0 14.6875 0 C 12.226562 0 10.078125 -0.429688 8.234375 -1.296875 C 6.398438 -2.160156 4.875 -3.320312 3.65625 -4.78125 C 2.4375 -6.238281 1.519531 -7.875 0.90625 -9.6875 C 0.300781 -11.5 0 -13.359375 0 -15.265625 C 0 -17.171875 0.300781 -19.019531 0.90625 -20.8125 C 1.519531 -22.613281 2.4375 -24.238281 3.65625 -25.6875 C 4.875 -27.132812 6.398438 -28.289062 8.234375 -29.15625 C 10.078125 -30.019531 12.226562 -30.453125 14.6875 -30.453125 C 17.125 -30.453125 19.253906 -30.019531 21.078125 -29.15625 C 22.910156 -28.289062 24.4375 -27.132812 25.65625 -25.6875 C 26.875 -24.238281 27.785156 -22.613281 28.390625 -20.8125 C 29.003906 -19.019531 29.3125 -17.171875 29.3125 -15.265625 Z M 23.59375 -15.15625 C 23.59375 -16.394531 23.398438 -17.601562 23.015625 -18.78125 C 22.640625 -19.957031 22.082031 -21.019531 21.34375 -21.96875 C 20.613281 -22.925781 19.691406 -23.679688 18.578125 -24.234375 C 17.460938 -24.796875 16.164062 -25.078125 14.6875 -25.078125 C 13.195312 -25.078125 11.890625 -24.796875 10.765625 -24.234375 C 9.648438 -23.679688 8.71875 -22.925781 7.96875 -21.96875 C 7.21875 -21.019531 6.660156 -19.957031 6.296875 -18.78125 C 5.929688 -17.601562 5.75 -16.394531 5.75 -15.15625 C 5.75 -13.9375 5.929688 -12.738281 6.296875 -11.5625 C 6.660156 -10.394531 7.21875 -9.34375 7.96875 -8.40625 C 8.71875 -7.46875 9.648438 -6.71875 10.765625 -6.15625 C 11.890625 -5.601562 13.195312 -5.328125 14.6875 -5.328125 C 16.164062 -5.328125 17.460938 -5.601562 18.578125 -6.15625 C 19.691406 -6.71875 20.613281 -7.46875 21.34375 -8.40625 C 22.082031 -9.34375 22.640625 -10.394531 23.015625 -11.5625 C 23.398438 -12.738281 23.59375 -13.9375 23.59375 -15.15625 Z M 23.59375 -15.15625 "/></g></g></g><g fill="#4ca626" fill-opacity="1"><g transform="translate(141.80399, 42.912774)"><g><path d="M 17.78125 -18.046875 C 18.050781 -18.046875 18.1875 -17.929688 18.1875 -17.703125 L 18.1875 -12.859375 C 18.1875 -12.628906 18.050781 -12.515625 17.78125 -12.515625 L 5.828125 -12.515625 L 5.828125 0 L 0.421875 0 C 0.140625 0 0 -0.113281 0 -0.34375 L 0 -30.109375 C 0 -30.335938 0.140625 -30.453125 0.421875 -30.453125 L 14.46875 -30.453125 L 14.46875 -24.9375 L 5.828125 -24.9375 L 5.828125 -18.046875 Z M 17.78125 -18.046875 "/></g></g></g><g fill="#4ca626" fill-opacity="1"><g transform="translate(163.992225, 42.912774)"><g><path d="M 17.515625 -15.15625 C 17.515625 -14.363281 17.238281 -13.6875 16.6875 -13.125 C 16.144531 -12.570312 15.46875 -12.296875 14.65625 -12.296875 C 13.863281 -12.296875 13.1875 -12.570312 12.625 -13.125 C 12.070312 -13.6875 11.796875 -14.363281 11.796875 -15.15625 C 11.796875 -15.957031 12.070312 -16.640625 12.625 -17.203125 C 13.1875 -17.765625 13.863281 -18.046875 14.65625 -18.046875 C 15.46875 -18.046875 16.144531 -17.765625 16.6875 -17.203125 C 17.238281 -16.640625 17.515625 -15.957031 17.515625 -15.15625 Z M 29.3125 -15.265625 C 29.3125 -13.359375 29.003906 -11.5 28.390625 -9.6875 C 27.785156 -7.875 26.875 -6.238281 25.65625 -4.78125 C 24.4375 -3.320312 22.910156 -2.160156 21.078125 -1.296875 C 19.253906 -0.429688 17.125 0 14.6875 0 C 12.226562 0 10.078125 -0.429688 8.234375 -1.296875 C 6.398438 -2.160156 4.875 -3.320312 3.65625 -4.78125 C 2.4375 -6.238281 1.519531 -7.875 0.90625 -9.6875 C 0.300781 -11.5 0 -13.359375 0 -15.265625 C 0 -17.171875 0.300781 -19.019531 0.90625 -20.8125 C 1.519531 -22.613281 2.4375 -24.238281 3.65625 -25.6875 C 4.875 -27.132812 6.398438 -28.289062 8.234375 -29.15625 C 10.078125 -30.019531 12.226562 -30.453125 14.6875 -30.453125 C 17.125 -30.453125 19.253906 -30.019531 21.078125 -29.15625 C 22.910156 -28.289062 24.4375 -27.132812 25.65625 -25.6875 C 26.875 -24.238281 27.785156 -22.613281 28.390625 -20.8125 C 29.003906 -19.019531 29.3125 -17.171875 29.3125 -15.265625 Z M 23.59375 -15.15625 C 23.59375 -16.394531 23.398438 -17.601562 23.015625 -18.78125 C 22.640625 -19.957031 22.082031 -21.019531 21.34375 -21.96875 C 20.613281 -22.925781 19.691406 -23.679688 18.578125 -24.234375 C 17.460938 -24.796875 16.164062 -25.078125 14.6875 -25.078125 C 13.195312 -25.078125 11.890625 -24.796875 10.765625 -24.234375 C 9.648438 -23.679688 8.71875 -22.925781 7.96875 -21.96875 C 7.21875 -21.019531 6.660156 -19.957031 6.296875 -18.78125 C 5.929688 -17.601562 5.75 -16.394531 5.75 -15.15625 C 5.75 -13.9375 5.929688 -12.738281 6.296875 -11.5625 C 6.660156 -10.394531 7.21875 -9.34375 7.96875 -8.40625 C 8.71875 -7.46875 9.648438 -6.71875 10.765625 -6.15625 C 11.890625 -5.601562 13.195312 -5.328125 14.6875 -5.328125 C 16.164062 -5.328125 17.460938 -5.601562 18.578125 -6.15625 C 19.691406 -6.71875 20.613281 -7.46875 21.34375 -8.40625 C 22.082031 -9.34375 22.640625 -10.394531 23.015625 -11.5625 C 23.398438 -12.738281 23.59375 -13.9375 23.59375 -15.15625 Z M 23.59375 -15.15625 "/></g></g></g><g fill="#4ca626" fill-opacity="1"><g transform="translate(197.826347, 42.912774)"><g><path d="M 16.4375 -5.671875 C 16.71875 -5.671875 16.859375 -5.546875 16.859375 -5.296875 L 16.859375 -0.34375 C 16.859375 -0.113281 16.71875 0 16.4375 0 L 0.421875 0 C 0.140625 0 0 -0.113281 0 -0.34375 L 0 -5.671875 Z M 5.828125 -11.5 L 0 -11.5 L 0 -30.109375 C 0 -30.335938 0.140625 -30.453125 0.421875 -30.453125 L 5.4375 -30.453125 C 5.695312 -30.453125 5.828125 -30.335938 5.828125 -30.109375 Z M 5.828125 -11.5 "/></g></g></g><g fill="#4ca626" fill-opacity="1"><g transform="translate(218.644463, 42.912774)"><g><path d="M 24.28125 -0.578125 C 24.40625 -0.421875 24.429688 -0.285156 24.359375 -0.171875 C 24.285156 -0.0546875 24.144531 0 23.9375 0 L 17.390625 0 C 17.242188 0 17.128906 -0.0351562 17.046875 -0.109375 L 8.1875 -11.078125 C 8.0625 -10.953125 7.773438 -10.640625 7.328125 -10.140625 C 6.878906 -9.648438 6.34375 -9.054688 5.71875 -8.359375 C 5.101562 -7.660156 4.460938 -6.9375 3.796875 -6.1875 C 3.140625 -5.4375 2.519531 -4.726562 1.9375 -4.0625 C 1.351562 -3.40625 0.882812 -2.875 0.53125 -2.46875 C 0.175781 -2.0625 0 -1.859375 0 -1.859375 L 0 -30.109375 C 0 -30.335938 0.140625 -30.453125 0.421875 -30.453125 L 5.4375 -30.453125 C 5.695312 -30.453125 5.828125 -30.335938 5.828125 -30.109375 L 5.828125 -16.25 L 17.28125 -30.328125 C 17.351562 -30.410156 17.46875 -30.453125 17.625 -30.453125 L 23.828125 -30.453125 C 24.023438 -30.453125 24.160156 -30.382812 24.234375 -30.25 C 24.316406 -30.125 24.296875 -30 24.171875 -29.875 L 12.0625 -14.953125 Z M 24.28125 -0.578125 "/></g></g></g></g></g></g></g></g></svg>